# xmcd
#
# Track frame offsets:
# 150
# 22900
# 44703
# 66516
# 91501
# 109433
# 129377
# 150216
# 174370
# 197991
# 219894
# 237877
#
# Disc length: 3438 seconds
#
#
# Revision: 0
# Processed by: cddbd v1.5.2PL0 Copyright (c) Steve Scherf et al.
# Submitted via: FreeRIP 2.951 
#
DISCID=990d6c0c
DTITLE=Bruna Karla - Advogado Fiel 
DYEAR=2009
DGENRE=Gospel
TTITLE0=Deus vem me socorrer
TTITLE1=Advogado Fiel
TTITLE2=Sou humano
TTITLE3=Pai, eu confiarei
TTITLE4=Em momentos assim
TTITLE5=Quando eu chorar
TTITLE6=Deus nos surpreende
TTITLE7=Abrace a vitória
TTITLE8=Lágrimas de gratidão
TTITLE9=Decidi confiar
TTITLE10=Ao final
TTITLE11=Que bom que você chegou
EXTD=
EXTT0=
EXTT1=
EXTT2=
EXTT3=
EXTT4=
EXTT5=
EXTT6=
EXTT7=
EXTT8=
EXTT9=
EXTT10=
EXTT11=
PLAYORDER=
